<?xml version="1.0" standalone="no"?>
<!DOCTYPE svg PUBLIC "-//W3C//DTD SVG 20010904//EN"
 "http://www.w3.org/TR/2001/REC-SVG-20010904/DTD/svg10.dtd">
<svg version="1.0" xmlns="http://www.w3.org/2000/svg"
 width="1000.000000pt" height="1000.000000pt" viewBox="0 0 1000.000000 1000.000000"
 preserveAspectRatio="xMidYMid meet">
<metadata>
Created by potrace 1.14, written by Peter Selinger 2001-2017
</metadata>
<g transform="translate(0.000000,1000.000000) scale(0.100000,-0.100000)"
fill="#000000" stroke="none">
<path d="M9497 9794 c-1 -1 -55 -4 -119 -8 -65 -3 -137 -8 -160 -11 -24 -2
-70 -6 -103 -10 -57 -5 -76 -7 -170 -20 -22 -2 -60 -7 -85 -10 -25 -3 -56 -8
-70 -10 -292 -48 -543 -101 -735 -155 -44 -12 -84 -23 -90 -25 -25 -5 -105
-28 -160 -46 -33 -11 -76 -24 -95 -30 -65 -20 -205 -70 -222 -79 -10 -6 -22
-10 -28 -10 -8 0 -193 -70 -270 -103 -14 -6 -27 -11 -30 -12 -3 0 -25 -11 -49
-23 -25 -12 -48 -22 -52 -22 -21 0 -615 -293 -629 -311 -3 -4 -25 -17 -50 -29
-120 -61 -478 -286 -710 -447 -120 -83 -424 -315 -565 -431 -50 -41 -140 -117
-145 -122 -3 -3 -36 -32 -75 -65 -38 -33 -77 -67 -86 -75 -8 -8 -58 -53 -110
-100 -100 -90 -575 -562 -674 -670 -33 -36 -89 -99 -125 -139 -36 -41 -76 -86
-90 -101 -14 -15 -45 -51 -70 -80 -25 -29 -50 -58 -55 -64 -6 -6 -33 -38 -60
-71 -28 -33 -54 -65 -60 -71 -12 -13 -48 -58 -165 -204 -51 -63 -100 -124
-109 -135 -18 -22 -313 -415 -337 -450 -8 -11 -35 -49 -61 -85 -172 -238 -430
-628 -670 -1016 -7 -10 -59 -98 -116 -194 -148 -248 -283 -486 -420 -740 -139
-258 -369 -714 -512 -1015 -58 -121 -273 -600 -286 -635 -5 -14 -14 -34 -19
-45 -93 -202 -312 -750 -439 -1100 -34 -93 -71 -192 -81 -220 -16 -42 -99
-283 -130 -378 l-9 -27 301 2 300 3 254 420 c140 231 259 432 265 447 6 16 15
28 19 28 5 0 10 6 12 13 2 7 73 129 158 271 85 141 163 271 174 289 37 64 199
333 221 367 12 19 120 199 239 400 120 201 228 381 241 400 12 19 61 100 108
180 47 80 92 153 99 162 12 17 72 18 963 18 1029 1 1016 1 1184 57 161 53 302
131 470 261 125 95 286 249 401 382 30 35 60 68 65 74 27 29 170 212 236 301
80 108 104 142 177 250 26 39 50 72 55 73 4 2 7 7 7 12 0 4 31 54 69 111 79
120 242 378 289 459 18 30 37 62 42 70 56 91 110 180 110 183 0 6 98 171 110
184 5 7 10 14 10 17 0 3 69 123 153 268 255 437 461 792 472 811 6 10 87 144
180 298 94 154 192 317 219 362 27 45 52 84 56 87 4 3 13 16 20 29 15 29 125
201 138 217 5 5 15 21 22 34 7 13 17 29 22 34 21 26 88 128 88 135 0 4 8 16
18 27 9 11 35 46 57 79 96 144 393 551 468 640 9 11 51 63 93 115 96 119 162
197 289 339 59 67 431 440 495 497 25 22 84 73 133 113 48 40 87 75 87 78 0 3
-288 1 -293 -3z"/>
</g>
</svg>
